<svg width="439" height="116" viewBox="0 0 439 116" fill="none" xmlns="http://www.w3.org/2000/svg">
<path fill-rule="evenodd" clip-rule="evenodd" d="M439 0H0V115.186H439V0ZM388.14 71.7957C388.14 88.1143 346.47 101.332 295.07 101.332C243.67 101.332 202 88.1279 202 71.8093C202 55.4908 243.68 42.2728 295.07 42.2728C346.46 42.2728 388.14 55.4772 388.14 71.7957Z" fill="white"/>
<path d="M388.13 71.8094C388.13 55.4908 346.46 42.2728 295.07 42.2728C243.67 42.2728 202 55.4908 202 71.8094C202 75.9298 204.66 79.8462 209.46 83.4091C223.67 72.8701 256.65 65.4859 295.07 65.4859C333.49 65.4859 366.47 72.8701 380.67 83.4091C385.47 79.8462 388.13 75.9162 388.13 71.8094Z" fill="#3E2B2F"/>
</svg>
