<svg width="201" height="74" viewBox="0 0 201 74" fill="none" xmlns="http://www.w3.org/2000/svg">
<path fill-rule="evenodd" clip-rule="evenodd" d="M201 0H0V74H201V0ZM193.14 36.7957C193.14 53.1143 151.47 66.3323 100.07 66.3323C48.67 66.3323 7 53.1279 7 36.8093C7 20.4908 48.68 7.2728 100.07 7.2728C151.46 7.2728 193.14 20.4772 193.14 36.7957Z" fill="white"/>
<path d="M193.13 36.8094C193.13 20.4908 151.46 7.27283 100.07 7.27283C48.67 7.27283 7 20.4908 7 36.8094C7 40.9298 9.66 44.8462 14.46 48.4091C28.67 37.8701 61.65 30.4859 100.07 30.4859C138.49 30.4859 171.47 37.8701 185.67 48.4091C190.47 44.8462 193.13 40.9162 193.13 36.8094Z" fill="#3E2B2F"/>
</svg>
