<svg viewBox="0 0 158 38" fill="none" xmlns="http://www.w3.org/2000/svg">
<path d="M157 19C157 21.0324 155.257 23.2752 151.297 25.5264C147.417 27.7329 141.735 29.7533 134.628 31.4628C120.428 34.8778 100.76 37 79 37C57.2396 37 37.5718 34.8778 23.3724 31.4628C16.2648 29.7533 10.5831 27.7329 6.70251 25.5264C2.7435 23.2752 1 21.0324 1 19C1 16.9676 2.7435 14.7248 6.70251 12.4736C10.5831 10.2671 16.2648 8.24666 23.3724 6.53725C37.5718 3.1222 57.2396 1 79 1C100.76 1 120.428 3.1222 134.628 6.53725C141.735 8.24666 147.417 10.2671 151.297 12.4736C155.257 14.7248 157 16.9676 157 19Z" stroke="#3E2B2F" stroke-width="2"/>
<path fill-rule="evenodd" clip-rule="evenodd" d="M78.9999 13C112.352 13 140.877 17.9708 152.466 25H151V26.456C150.935 26.4184 150.87 26.3807 150.803 26.3429C147.04 24.2029 141.461 22.2092 134.394 20.5095C120.291 17.1177 100.705 15 78.9999 15C57.2944 15 37.7088 17.1177 23.6062 20.5095C16.5391 22.2092 10.9603 24.2029 7.19674 26.3429C7.13038 26.3807 7.06478 26.4183 6.99993 26.4559V25H5.53418C17.1229 17.9708 45.6478 13 78.9999 13Z" fill="#3E2B2F"/>
</svg>
