<svg viewBox="0 0 357 203" fill="none" xmlns="http://www.w3.org/2000/svg">
<path fill-rule="evenodd" clip-rule="evenodd" d="M73.8584 50.7008C73.2756 51.2102 72.0662 51.443 70.0701 51.443H64.4458L60.468 83.575C60.2202 85.5249 59.8269 86.6746 59.2732 87.184C58.7051 87.6932 57.5103 87.9407 55.4995 87.9407H49.438C47.4856 87.9407 46.3638 87.7223 45.8101 87.213C45.0669 86.6309 44.688 85.8306 44.688 84.8846C44.688 84.5208 44.7463 83.8368 44.863 82.8036L48.7532 51.4285H48.0393C46.0869 51.4285 44.9648 51.2102 44.4111 50.7008C43.6682 50.1042 43.2893 49.3038 43.2893 48.3579C43.2893 48.1724 43.3032 47.9169 43.3313 47.5828C43.3481 47.3827 43.3699 47.1543 43.3967 46.8961C43.4165 46.7062 43.439 46.5 43.4641 46.2769L43.814 43.512C44.0762 41.5474 44.4695 40.3977 45.0522 39.8883C45.6353 39.379 46.8154 39.1461 48.7825 39.1461H50.2832L52.3523 22.047C53.2847 14.698 54.771 9.41541 56.7671 6.3158C59.4917 2.12463 64.2273 0 70.8713 0C74.0479 0 76.2478 0.247437 77.6321 0.77124C79.5408 1.48438 79.9487 2.76501 79.9487 3.71094C79.9487 4.04553 79.8906 4.70044 79.7739 5.79187L79.1912 10.0703C79.031 11.7002 78.7395 12.7916 78.3169 13.4028C77.8362 14.0868 77.0347 14.436 75.9565 14.436C75.8835 14.436 75.738 14.436 72.78 14.145C72.5178 14.1013 71.9788 14.1887 70.915 15.0037C70.0554 15.673 69.4727 16.3569 69.1667 17.0264C68.7295 18.0305 68.2778 20.3153 67.8262 23.8224L65.9465 39.1608H70.813C72.8093 39.1608 73.9458 39.379 74.4995 39.8883C75.2427 40.485 75.6213 41.2999 75.6213 42.2896C75.6213 42.4786 75.6069 42.9008 75.3882 44.3269L75.0386 47.019C74.8201 49.0127 74.4412 50.1915 73.8584 50.7008ZM227.359 93.6453C227.257 93.2961 227.126 92.6412 226.951 91.5934L220.817 52.491C220.481 50.5554 220.525 49.333 220.948 48.6782C221.37 48.0233 222.463 47.4703 224.386 46.9174L230.142 45.2729C232.051 44.7198 233.216 44.618 233.886 44.9528C234.761 45.3165 235.344 46.0005 235.62 46.9464L235.627 46.9751C235.674 47.1768 235.775 47.6112 235.955 48.9692L236.334 51.3413C238.053 46.83 239.788 43.774 241.609 42.0568C243.153 40.5288 244.814 39.5101 246.534 39.0154C247.743 38.6807 248.705 38.6515 249.491 38.9572C250.322 39.2772 250.876 39.9467 251.167 40.9363C251.269 41.271 251.4 41.9113 251.561 42.9299L252.493 48.8965C252.755 50.5264 252.77 51.6614 252.551 52.3455C252.289 53.1312 251.648 53.6842 250.643 53.9752C250.555 54.0044 250.337 54.0626 246.067 54.9211C242.614 56.2455 240.356 58.3411 239.467 61.0914C238.738 63.0997 238.709 66.2576 239.379 70.4923L242.133 88.0426C242.439 89.9781 242.381 91.186 241.988 91.8408C241.594 92.4957 240.501 93.0487 238.578 93.6017L232.764 95.2752C231.613 95.6099 230.739 95.77 230.083 95.77C229.821 95.77 229.588 95.7458 229.385 95.6936C229.329 95.679 229.274 95.6621 229.222 95.643L229.184 95.628L229.164 95.6198L229.135 95.6074L229.104 95.5936L229.078 95.5808C228.204 95.217 227.621 94.5621 227.359 93.6453ZM167.707 97.7781C171.058 102.246 176.624 105.127 184.216 106.335C186.532 106.699 188.703 106.888 190.714 106.888C192.783 106.888 194.692 106.684 196.411 106.291C199.573 105.549 202.443 103.963 204.935 101.562C207.878 98.7676 210.501 93.4414 212.701 85.7141L218.398 65.9663C218.49 65.6288 218.568 65.3328 218.634 65.0764C218.681 64.8927 218.722 64.7294 218.757 64.5857C218.798 64.4181 218.829 64.2772 218.853 64.1622C218.871 64.0745 218.885 64.0017 218.894 63.9435C219.039 63.0122 218.792 62.1681 218.165 61.4551C217.699 60.8729 216.592 60.4655 214.697 60.1744L208.723 59.2285C206.756 58.923 205.518 58.9666 204.862 59.374C204.192 59.7961 203.653 60.8729 203.128 62.7648L197.329 82.7744C196.12 87.0383 194.736 89.9343 193.191 91.3895C191.719 92.7866 189.607 93.2813 186.926 92.8448C184.405 92.4518 182.496 91.3604 181.272 89.6287C180.486 88.4936 180.238 86.9073 180.558 84.9137C180.675 84.157 180.981 82.9346 181.476 81.29L187.246 61.0476C187.582 59.9707 187.756 59.345 187.814 59.0103C187.96 58.0789 187.713 57.2349 187.072 56.5217C186.78 56.158 186.095 55.634 183.545 55.2266L177.572 54.2806C175.634 53.9751 174.424 54.0188 173.769 54.4408C173.113 54.8483 172.545 55.9252 171.976 57.8315L166.498 76.9098C165.784 79.4565 165.259 81.7704 164.939 83.7786C164.064 89.4249 164.997 94.1254 167.707 97.7781ZM236.321 138.845L226.281 124.22C223.848 120.684 222.508 117.831 222.303 115.707C221.925 112.84 223.061 109.988 225.596 107.295C227.602 105.787 228.51 105.099 228.931 104.776C229.242 104.537 229.287 104.497 229.312 104.472C230.099 103.774 230.434 103.002 230.332 102.188C230.23 101.474 229.735 100.456 228.802 99.0878L225.393 94.1109C224.824 93.296 224.431 92.7575 224.183 92.481C223.236 91.4187 221.604 90.5892 219.171 92.743C217.83 93.9217 216.781 95.5662 216.038 97.6035C215.135 99.9465 214.887 103.439 215.281 108.241L213.926 106.262C213.439 105.516 213.154 105.109 212.975 104.868L212.896 104.764C212.872 104.732 212.85 104.705 212.831 104.68C212.798 104.638 212.771 104.605 212.748 104.577L212.745 104.574C212.09 103.832 211.274 103.454 210.312 103.512C209.831 103.468 209.001 103.701 207.077 105.404L202.59 109.376C201.089 110.701 200.346 111.676 200.244 112.447C200.142 113.218 200.623 114.339 201.759 115.94L217.51 138.918C214.581 138.976 211.653 139.078 208.724 139.18L202.109 124.948C201.453 123.609 201.249 123.245 201.147 123.099C200.652 122.299 199.894 121.819 198.961 121.702C198.233 121.571 197.126 121.993 195.494 122.998L190.365 126.199C188.675 127.261 187.771 128.091 187.553 128.833C187.32 129.59 187.626 130.754 188.471 132.529L191.982 140.097C186.329 140.504 180.763 141.014 175.343 141.596C175.086 141.006 174.885 140.562 174.727 140.239L174.702 140.19L174.656 140.099L174.625 140.039L174.593 139.976C174.54 139.877 174.494 139.797 174.454 139.733C173.944 138.933 173.201 138.452 172.268 138.336C171.525 138.205 170.447 138.612 168.757 139.675L163.628 142.876C163.522 142.935 163.445 142.993 163.358 143.06L163.356 143.061L163.293 143.109C160.014 143.575 156.823 144.07 153.705 144.608L153.724 144.595L153.739 144.584L153.771 144.563L153.797 144.545C153.808 144.539 153.817 144.532 153.827 144.525C153.841 144.514 153.854 144.503 153.866 144.492C157.873 141.276 159.912 136.662 159.912 130.783C159.912 127.043 158.994 124.104 157.202 122.052C155.425 120.014 152.336 118.326 148.023 117.031C142.355 115.328 140.446 114.572 139.834 114.237C139.106 113.83 138.756 113.116 138.756 112.069C138.756 111.079 139.178 110.293 140.038 109.697C140.956 109.056 142.224 108.736 143.826 108.736C145.998 108.736 147.746 109.013 149.014 109.551C153.968 111.734 154.39 111.734 154.609 111.734C155.425 111.734 156.08 111.487 156.547 111.021C156.955 110.599 157.479 109.769 158.135 108.474L159.344 106C160.335 104.036 160.437 103.337 160.437 102.973C160.437 102.202 160.131 101.125 158.63 100.325C154.375 97.9819 149.363 96.8031 143.754 96.8031C138.348 96.8031 133.904 98.0692 130.538 100.543C126.283 103.716 124.127 108.358 124.127 114.324C124.127 119.01 125.846 122.503 129.241 124.729C130.888 125.792 133.248 126.839 136.221 127.844C140.155 129.241 142.573 130.216 143.433 130.754C144.133 131.191 144.482 131.889 144.482 132.879C144.482 134.378 143.958 136.386 139.484 136.386C136.323 136.386 133.423 135.746 130.859 134.494C127.245 132.719 126.342 132.471 125.934 132.471C125.016 132.471 124.316 132.762 123.836 133.344C123.413 133.854 122.99 134.785 122.539 136.226L121.504 139.558C120.907 141.392 120.834 141.989 120.834 142.28C120.834 143.051 121.125 144.113 122.539 144.87C124.608 145.961 127.362 146.893 130.698 147.635C132.374 147.999 133.991 148.275 135.565 148.464C115.021 153.732 101.499 161.111 101.499 170.424C101.499 190.958 167.198 202.047 229.006 202.047C290.814 202.047 356.513 190.958 356.513 170.424C356.528 150.676 295.899 139.675 236.321 138.845ZM197.242 151.462C199.136 155.464 199.981 158.564 199.778 160.674C199.573 162.726 198.335 164.428 196.004 165.884C193.803 167.252 191.72 167.674 189.622 167.164C188.281 166.83 187.057 165.796 185.979 164.079C185.557 163.41 184.988 162.289 184.289 160.732L177.557 146.369C182.876 145.801 188.427 145.321 194.211 144.928L197.242 151.462ZM242.149 177.817C243.169 173.917 245.427 171.385 249.055 170.06C250.177 169.653 251.27 169.449 252.319 169.449C253.63 169.449 254.898 169.769 256.136 170.41C258.409 171.574 260.158 173.829 261.353 177.104C262.708 180.829 262.868 184.38 261.848 187.698C260.726 191.205 258.599 193.475 255.321 194.669C252.508 195.687 249.988 195.542 247.642 194.188C245.471 192.98 243.839 190.914 242.79 188.033C241.508 184.496 241.289 181.062 242.149 177.817ZM281.11 194.407C281.086 194.309 281.066 194.212 281.046 194.113L281.027 194.018C281.016 193.969 281.006 193.919 280.994 193.868L272.149 155.275C272.124 155.168 272.098 155.066 272.074 154.967L272.027 154.779L271.973 154.57C271.956 154.5 271.938 154.432 271.921 154.368L271.887 154.239C271.862 154.144 271.838 154.056 271.815 153.973C271.721 153.634 271.647 153.399 271.596 153.267C271.275 152.379 270.634 151.753 269.745 151.448C269.061 151.171 267.895 151.346 266.088 152.001L260.508 154.023C258.672 154.693 257.637 155.319 257.258 156.003C256.879 156.687 256.909 157.894 257.346 159.83L257.739 161.445C254.592 159.728 251.838 158.68 249.507 158.346C246.87 157.953 243.883 158.36 240.619 159.539C233.785 162.027 229.123 166.786 226.762 173.698C224.46 180.465 224.693 187.756 227.461 195.352C227.68 195.949 227.913 196.502 228.146 197.055C156.416 196.939 106.497 182.968 106.497 170.41C106.497 162.304 127.333 153.601 161.399 148.421C161.445 148.539 161.49 148.654 161.539 148.773L161.621 148.97C161.656 149.055 161.694 149.142 161.734 149.236L170.126 167.223C171.248 169.595 172.37 171.69 173.463 173.436C176.494 178.268 180.282 181.222 184.726 182.182C185.95 182.444 187.188 182.575 188.471 182.575C192.929 182.575 197.738 180.989 202.808 177.817C206.859 175.285 209.948 172.592 211.988 169.798C213.882 167.164 215.004 164.094 215.324 160.645C215.703 156.701 214.246 151.113 210.997 144.07C214.246 143.968 217.539 143.88 220.89 143.837L224.154 148.61C224.766 149.483 225.159 150.007 225.407 150.283C226.004 150.953 226.762 151.302 227.636 151.302H227.782C228.525 151.36 229.516 150.749 230.988 149.454L235.519 145.452C236.204 144.841 236.714 144.331 237.078 143.851C304.948 144.855 351.559 158.302 351.559 170.439C351.559 179.694 324.283 189.735 281.11 194.407ZM239.409 102.479C237.486 109.158 237.748 115.052 240.182 120C242.658 124.977 246.709 128.295 252.246 129.881C255.845 130.914 259.502 130.943 263.145 129.983C264.791 129.561 266.787 128.688 269.119 127.392L269.075 127.494C268.521 128.542 268.201 129.255 268.084 129.663C267.764 130.769 267.924 131.656 268.565 132.297C269.119 132.879 270.182 133.388 271.814 133.854L277.628 135.527C278.823 135.877 279.741 136.037 280.44 136.037C280.863 136.037 281.212 135.978 281.475 135.847C282.188 135.513 282.859 134.509 283.602 132.69L299.149 96.2793C299.702 94.8968 299.848 94.5038 299.892 94.3292C300.154 93.4124 300.008 92.5538 299.469 91.7825C299.076 91.1568 298.041 90.6183 296.191 90.0799L290.479 88.45C288.6 87.9116 287.39 87.8097 286.691 88.1444C285.991 88.4791 285.292 89.4687 284.505 91.2878L283.864 92.8303C282.334 89.5997 280.717 87.1257 279.041 85.4813C277.133 83.6187 274.481 82.178 271.159 81.2321C264.179 79.2383 257.608 80.3444 251.619 84.5499C245.748 88.6829 241.639 94.7076 239.409 102.479ZM256.136 105.535C257.171 101.94 259.007 99.0443 261.615 96.905C263.801 95.1005 266.103 94.2128 268.565 94.2128C269.6 94.2128 270.663 94.3729 271.771 94.6785C274.364 95.4207 276.171 96.8759 277.307 99.117C278.458 101.402 278.546 104.254 277.599 107.587C276.506 111.385 274.539 114.368 271.771 116.449C268.813 118.632 265.738 119.214 262.373 118.254C259.488 117.424 257.55 115.823 256.442 113.349C255.393 111.108 255.291 108.474 256.136 105.535ZM27.4656 98.8404C29.957 97.5016 32.8567 96.8176 36.0476 96.8176C42.3711 96.8176 47.3835 99.3061 50.9824 104.181C53.9985 108.299 55.5283 113.655 55.5283 120.131C55.5283 128.775 53.0369 135.876 48.1121 141.261C43.5952 146.209 37.8979 148.712 31.1809 148.712C27.7861 148.712 24.8428 148.071 22.4241 146.776C20.2969 145.656 18.1404 143.808 15.9985 141.261L15.78 142.803C15.5613 144.739 15.1826 145.903 14.5996 146.412C14.0168 146.936 12.8076 147.169 10.8113 147.169H4.75C2.82666 147.169 1.67554 146.936 1.12183 146.442C0.378906 145.859 0 145.059 0 144.113C0 143.749 0.0583496 143.065 0.174805 142.032L9.80591 64.3801C10.0247 62.4302 10.3889 61.2659 10.9863 60.7566C11.5691 60.2472 12.7783 60.0144 14.7747 60.0144H20.7629C22.7593 60.0144 23.8958 60.2327 24.4495 60.7421C25.1926 61.3386 25.5713 62.139 25.5713 63.085C25.5713 63.4634 25.4985 64.1328 25.3381 65.1805L20.4863 104.574C23.0068 101.911 25.3381 99.9901 27.4656 98.8404ZM26.7661 135.687C30.1465 135.687 32.9441 134.261 35.3044 131.307C37.5046 128.513 38.6265 125.108 38.6265 121.178C38.6265 118.035 37.8105 115.445 36.2224 113.495C34.5906 111.487 32.332 110.497 29.3015 110.497C25.5859 110.497 22.73 111.952 20.5591 114.921C18.5337 117.759 17.4993 121.149 17.4993 124.991C17.4993 127.844 18.2568 130.303 19.7432 132.297C21.4478 134.581 23.75 135.687 26.7661 135.687ZM108.114 147.184C110.11 147.184 111.319 146.951 111.902 146.427C112.485 145.918 112.864 144.754 113.082 142.804L117.978 103.526C118.045 102.915 118.086 102.486 118.112 102.178C118.124 102.033 118.133 101.915 118.139 101.819C118.151 101.627 118.153 101.519 118.153 101.445C118.153 100.499 117.774 99.699 117.031 99.1024C116.477 98.5931 115.355 98.3748 113.403 98.3748H107.458C105.491 98.3748 104.311 98.6076 103.728 99.1169C103.145 99.6263 102.752 100.776 102.49 102.741L102.3 104.4C99.9395 101.722 97.6958 99.7864 95.6267 98.6658C93.2808 97.3998 90.3376 96.7595 86.8699 96.7595C79.5991 96.7595 73.5959 99.6409 68.9917 105.331C64.5039 110.904 62.231 117.831 62.231 125.908C62.231 132.864 64.1106 138.452 67.8115 142.542C71.5562 146.645 76.3789 148.726 82.1343 148.726C85.8789 148.726 89.405 147.751 92.6396 145.83C94.0967 144.972 95.7869 143.589 97.6665 141.698L97.6521 141.799C97.4043 142.978 97.2878 143.735 97.2878 144.157C97.2878 145.307 97.6812 146.107 98.468 146.558C99.1672 146.966 100.318 147.155 102.023 147.155H108.114V147.184ZM97.2148 130.448C94.9709 133.359 92.1736 134.771 88.6912 134.771C85.6895 134.771 83.3875 133.766 81.6389 131.685C80.0071 129.808 79.1912 127.305 79.1912 124.235C79.1912 120.495 80.1672 117.206 82.0906 114.426C84.3782 111.108 87.3652 109.493 91.2263 109.493C93.9219 109.493 96.0637 110.395 97.7686 112.243C99.5024 114.121 100.377 116.827 100.377 120.305C100.377 124.293 99.313 127.698 97.2148 130.448ZM140.868 51.3848H141.757L137.867 82.8036C137.75 83.735 137.692 84.448 137.692 84.8992C137.692 85.8451 138.071 86.6455 138.814 87.2275C139.367 87.7369 140.49 87.9552 142.442 87.9552H148.489C150.5 87.9552 151.694 87.7078 152.262 87.1985C152.816 86.6891 153.209 85.5394 153.457 83.5895L157.435 51.3993H159.446C161.457 51.3993 162.651 51.152 163.219 50.6426C163.788 50.1333 164.167 48.9836 164.414 47.0336L164.764 44.3414C164.865 43.6553 164.931 43.136 164.966 42.7617C164.987 42.5406 164.997 42.3701 164.997 42.2458C164.997 41.2999 164.618 40.4995 163.875 39.9028C163.322 39.3936 162.185 39.1753 160.189 39.1753H158.95L160.305 28.2026C160.368 27.6284 160.414 27.1648 160.443 26.8071C160.468 26.5031 160.48 26.2755 160.48 26.1217C160.48 25.1758 160.101 24.3754 159.358 23.7933C158.805 23.2839 157.683 23.0657 155.73 23.0657H149.669C147.673 23.0657 146.463 23.2985 145.881 23.8224C145.298 24.3318 144.919 25.496 144.7 27.4459L143.258 39.1898H141.582C139.615 39.1898 138.435 39.4226 137.852 39.932C137.269 40.4413 136.876 41.5909 136.614 43.5555L136.264 46.2623C136.147 47.3101 136.089 47.9795 136.089 48.3434C136.089 49.2892 136.468 50.0896 137.226 50.759C137.823 51.1957 138.93 51.3848 140.868 51.3848ZM84.2466 83.6332C80.9829 80.4607 79.3364 75.964 79.3364 70.2594C79.3364 68.222 79.4966 65.8501 79.759 63.2015L82.1777 43.512C82.4399 41.5474 82.8333 40.3977 83.4163 39.8884C83.999 39.379 85.1792 39.1462 87.1462 39.1462H93.2075C95.2039 39.1462 96.3403 39.3645 96.894 39.8739C97.637 40.4705 98.0159 41.2709 98.0159 42.2168C98.0159 42.5515 97.9431 43.2209 97.7827 44.3124L95.2476 65.1952C95.0288 66.8978 94.9124 68.1493 94.9124 68.9207C94.9124 70.9434 95.3931 72.4714 96.3547 73.4609C97.8701 75.0035 99.8518 75.7603 102.445 75.7603C105.199 75.7603 107.152 74.9745 108.405 73.3446C109.701 71.671 110.619 68.5859 111.144 64.191L113.738 43.512C113.956 41.562 114.335 40.3977 114.918 39.8884C115.5 39.379 116.71 39.1462 118.706 39.1462H124.753C126.676 39.1462 127.827 39.379 128.381 39.8739C129.124 40.4705 129.503 41.2709 129.503 42.2168C129.503 42.5078 129.445 43.1918 129.328 44.2979L126.793 64.6858C125.831 72.6606 124.083 78.3361 121.606 81.5521C119.522 84.3171 116.928 86.34 113.927 87.5624C110.721 88.843 106.671 89.4978 101.892 89.4978C94.1985 89.4978 88.2681 87.5332 84.2466 83.6332Z" fill="black"/>
</svg>
