<svg width="438" height="103" viewBox="0 0 438 103" fill="none" xmlns="http://www.w3.org/2000/svg">
<path fill-rule="evenodd" clip-rule="evenodd" d="M439 0H0V103H439V0ZM388.14 64.2004C388.14 78.7926 346.47 90.6122 295.07 90.6122C243.67 90.6122 202 78.8047 202 64.2125C202 49.6204 243.68 37.8007 295.07 37.8007C346.46 37.8007 388.14 49.6082 388.14 64.2004Z" fill="white"/>
<path d="M388.13 64.2125C388.13 49.6204 346.46 37.8007 295.07 37.8007C243.67 37.8007 202 49.6204 202 64.2125C202 67.8971 204.66 71.3992 209.46 74.5852C223.67 65.161 256.65 58.5581 295.07 58.5581C333.49 58.5581 366.47 65.161 380.67 74.5852C385.47 71.3992 388.13 67.8849 388.13 64.2125Z" fill="#3E2B2F"/>
</svg>
