<svg width="187" height="44" viewBox="0 0 187 44" fill="none" xmlns="http://www.w3.org/2000/svg">
<path d="M93.07 43.43C144.47 43.43 186.14 33.71 186.14 21.71C186.14 9.71 144.46 0 93.07 0C41.68 0 0 9.72 0 21.72C0 33.72 41.67 43.43 93.07 43.43Z" fill="#3E2B2F"/>
<path d="M186.13 21.72C186.13 9.72 144.46 0 93.07 0C41.67 0 0 9.72 0 21.72C0 24.75 2.66 27.63 7.46 30.25C21.67 22.5 54.65 17.07 93.07 17.07C131.49 17.07 164.47 22.5 178.67 30.25C183.47 27.63 186.13 24.74 186.13 21.72Z" fill="#ADA3A4"/>
</svg>
