<svg viewBox="0 0 80 96" xmlns="http://www.w3.org/2000/svg">
<path fill-rule="evenodd" clip-rule="evenodd" d="M53.0998 11.1C63.3998 12.1 72.1998 14.3 78.0998 18C80.3998 19.5 79.3998 23.2 76.6998 23.2H3.59982C0.79982 23.2 -0.30018 19.5 2.09982 18C7.99982 14.3 16.7998 12.1 27.0998 11.1C28.2998 5.1 33.6998 0.5 40.0998 0.5C46.4998 0.5 51.7998 5.1 53.0998 11.1ZM39.9998 6.1C36.7998 6.1 34.0998 8 32.8998 10.7C35.1998 10.6 37.5998 10.5 39.9998 10.5C42.3998 10.5 44.7998 10.6 47.0998 10.7C45.8998 8 43.1998 6.1 39.9998 6.1ZM8.89964 28.8H71.0996C72.2996 28.8 73.1996 29.8 72.9996 31.1L65.8996 88.2C65.3996 92.4 61.7996 95.5 57.5996 95.5H22.2996C18.0996 95.5 14.4996 92.4 13.9996 88.2L6.89964 31.1C6.69963 29.9 7.69963 28.8 8.89964 28.8ZM26.6996 83.2H26.8996C28.2996 83.1 29.2996 81.9 29.1996 80.5L26.0996 43.3C25.9996 41.9 24.6996 40.9001 23.3996 41C21.9996 41.1 20.9996 42.4001 21.0996 43.7001L24.1996 80.9001C24.2996 82.2001 25.3996 83.2 26.6996 83.2ZM39.9996 83.2C41.3996 83.2 42.4996 82.1 42.4996 80.7V43.5C42.4996 42.1 41.3996 41 39.9996 41C38.5996 41 37.4996 42.1 37.4996 43.5V80.7C37.4996 82.1 38.5996 83.2 39.9996 83.2ZM53.2996 83.2C54.5996 83.2 55.6996 82.2001 55.7996 80.9001L58.8996 43.7001C58.9996 42.3 57.9996 41.1 56.5996 41C55.1996 40.9001 53.9996 41.9 53.8996 43.3L50.7996 80.5C50.6996 81.9 51.6996 83.1 53.0996 83.2H53.2996Z"/>
</svg>
